<svg xmlns="http://www.w3.org/2000/svg" width="15" height="13" viewBox="0 0 15 13" fill="none">
   <path
      d="M13.3335 9.66667H4.64513C3.97566 9.66667 3.40999 9.17022 3.32308 8.50641L2.54106 2.53304C2.50043 2.22269 2.35192 1.93654 2.12154 1.72467L1.3335 1"
      stroke="black" stroke-linecap="round" />
   <path
      d="M12.241 8.33325H3.75531C3.53722 8.33325 3.35364 8.17001 3.32816 7.9534L2.67829 2.42932C2.67228 2.37818 2.71223 2.33325 2.76372 2.33325H14.0587C14.3555 2.33325 14.5632 2.62687 14.4642 2.90675L12.6465 8.04655C12.5857 8.21838 12.4233 8.33325 12.241 8.33325Z"
      fill="black" />
   <ellipse cx="5.33333" cy="11.0001" rx="1.33333" ry="1.33333" fill="black" />
   <ellipse cx="10.6668" cy="11.0001" rx="1.33333" ry="1.33333" fill="black" />
</svg>