<svg xmlns="http://www.w3.org/2000/svg" width="111" height="27" viewBox="0 0 111 27" fill="none">
   <path d="M0 26.5667V1.28889H3.29735V23.6778H15.9133V26.5667H0Z" fill="white" />
   <path d="M21.5044 1.28889V26.5667H24.6584V1.28889H21.5044Z" fill="white" />
   <path
      d="M33.1168 26.5667V1.28889H36.5575L40.285 6.77778L50.0336 20.9333V1.28889H53.331V26.5667H50.0336L36.5575 6.77778V26.5667H33.1168Z"
      fill="white" />
   <path
      d="M80.4266 8.36667C79.5664 2.37222 73.6168 1 70.3195 1C67.0221 1 60.1407 1.28889 59.7106 13.7111C59.2808 26.1258 69.0292 27 70.3195 27C80.6416 27 81 17.9 81 13.7111H71.2513V16.6H76.8425C76.8425 21.5833 75.4805 23.6056 70.3195 23.6056C65.1584 23.6056 63.3664 18.1167 63.3664 13.7111C63.3664 9.30556 64.9434 3.81667 70.3195 3.88889C74.6204 3.94667 76.4602 6.89815 76.8425 8.36667H80.4266Z"
      fill="white" />
   <path
      d="M86 17.3882L92.0923 26H102.702L103.115 25.4353M86 17.3882L88.0536 6.87059L88.3958 6.69152M86 17.3882L107.594 11.3882M88.3958 6.69152L97.3631 2L106.536 6.87059L107.594 11.3882M88.3958 6.69152L103.115 25.4353M103.115 25.4353L109 17.3882L107.594 11.3882"
      stroke="white" stroke-width="2" />
</svg>